<svg width="200" height="280" viewBox="0 0 200 280" fill="none" xmlns="http://www.w3.org/2000/svg">
  <rect width="200" height="280" rx="4" fill="white" />
  <rect x="1" y="1" width="198" height="278" rx="3" stroke="#E5E7EB" stroke-width="2" />

  <!-- Header lines -->
  <rect x="20" y="20" width="80" height="4" rx="2" fill="#1F2937" />
  <rect x="20" y="28" width="100" height="3" rx="1.5" fill="#6B7280" />
  <rect x="20" y="35" width="90" height="3" rx="1.5" fill="#6B7280" />
  <rect x="20" y="42" width="70" height="3" rx="1.5" fill="#6B7280" />

  <!-- Date -->
  <rect x="20" y="58" width="60" height="3" rx="1.5" fill="#9CA3AF" />

  <!-- Recipient -->
  <rect x="20" y="75" width="75" height="4" rx="2" fill="#1F2937" />
  <rect x="20" y="83" width="85" height="3" rx="1.5" fill="#6B7280" />
  <rect x="20" y="90" width="95" height="3" rx="1.5" fill="#6B7280" />
  <rect x="20" y="97" width="80" height="3" rx="1.5" fill="#6B7280" />

  <!-- Salutation -->
  <rect x="20" y="115" width="55" height="3" rx="1.5" fill="#374151" />

  <!-- Body paragraphs -->
  <rect x="20" y="130" width="160" height="2" rx="1" fill="#D1D5DB" />
  <rect x="20" y="136" width="160" height="2" rx="1" fill="#D1D5DB" />
  <rect x="20" y="142" width="160" height="2" rx="1" fill="#D1D5DB" />
  <rect x="20" y="148" width="120" height="2" rx="1" fill="#D1D5DB" />

  <rect x="20" y="160" width="160" height="2" rx="1" fill="#D1D5DB" />
  <rect x="20" y="166" width="160" height="2" rx="1" fill="#D1D5DB" />
  <rect x="20" y="172" width="150" height="2" rx="1" fill="#D1D5DB" />

  <rect x="20" y="184" width="160" height="2" rx="1" fill="#D1D5DB" />
  <rect x="20" y="190" width="160" height="2" rx="1" fill="#D1D5DB" />
  <rect x="20" y="196" width="140" height="2" rx="1" fill="#D1D5DB" />

  <!-- Closing -->
  <rect x="20" y="215" width="50" height="3" rx="1.5" fill="#374151" />
  <rect x="20" y="235" width="70" height="3" rx="1.5" fill="#6B7280" />
</svg>