<svg width="200" height="280" viewBox="0 0 200 280" fill="none" xmlns="http://www.w3.org/2000/svg">
  <rect width="200" height="280" rx="4" fill="white" />
  <rect x="1" y="1" width="198" height="278" rx="3" stroke="#E5E7EB" stroke-width="2" />

  <!-- Header -->
  <rect x="20" y="20" width="85" height="5" rx="2.5" fill="#2563EB" />
  <rect x="20" y="29" width="95" height="3" rx="1.5" fill="#6B7280" />
  <rect x="20" y="36" width="105" height="3" rx="1.5" fill="#6B7280" />

  <!-- Date -->
  <rect x="20" y="52" width="60" height="3" rx="1.5" fill="#9CA3AF" />

  <!-- Company info -->
  <rect x="20" y="68" width="80" height="4" rx="2" fill="#1F2937" />
  <rect x="20" y="76" width="90" height="3" rx="1.5" fill="#6B7280" />
  <rect x="20" y="83" width="85" height="3" rx="1.5" fill="#6B7280" />

  <!-- Greeting -->
  <rect x="20" y="100" width="65" height="3" rx="1.5" fill="#374151" />

  <!-- Paragraphs -->
  <rect x="20" y="115" width="160" height="2" rx="1" fill="#D1D5DB" />
  <rect x="20" y="121" width="160" height="2" rx="1" fill="#D1D5DB" />
  <rect x="20" y="127" width="160" height="2" rx="1" fill="#D1D5DB" />
  <rect x="20" y="133" width="155" height="2" rx="1" fill="#D1D5DB" />
  <rect x="20" y="139" width="130" height="2" rx="1" fill="#D1D5DB" />

  <rect x="20" y="151" width="160" height="2" rx="1" fill="#D1D5DB" />
  <rect x="20" y="157" width="160" height="2" rx="1" fill="#D1D5DB" />
  <rect x="20" y="163" width="160" height="2" rx="1" fill="#D1D5DB" />
  <rect x="20" y="169" width="145" height="2" rx="1" fill="#D1D5DB" />

  <rect x="20" y="181" width="160" height="2" rx="1" fill="#D1D5DB" />
  <rect x="20" y="187" width="160" height="2" rx="1" fill="#D1D5DB" />
  <rect x="20" y="193" width="135" height="2" rx="1" fill="#D1D5DB" />

  <rect x="20" y="205" width="160" height="2" rx="1" fill="#D1D5DB" />
  <rect x="20" y="211" width="160" height="2" rx="1" fill="#D1D5DB" />
  <rect x="20" y="217" width="125" height="2" rx="1" fill="#D1D5DB" />

  <!-- Signature -->
  <rect x="20" y="235" width="50" height="3" rx="1.5" fill="#374151" />
  <rect x="20" y="250" width="70" height="3" rx="1.5" fill="#6B7280" />
</svg>