<svg width="200" height="280" viewBox="0 0 200 280" fill="none" xmlns="http://www.w3.org/2000/svg">
  <rect width="200" height="280" rx="4" fill="white" />
  <rect x="1" y="1" width="198" height="278" rx="3" stroke="#E5E7EB" stroke-width="2" />

  <!-- Header -->
  <rect x="20" y="20" width="75" height="4" rx="2" fill="#1F2937" />
  <rect x="20" y="28" width="90" height="3" rx="1.5" fill="#6B7280" />
  <rect x="20" y="35" width="85" height="3" rx="1.5" fill="#6B7280" />

  <!-- Date -->
  <rect x="20" y="50" width="60" height="3" rx="1.5" fill="#9CA3AF" />

  <!-- Greeting -->
  <rect x="20" y="70" width="60" height="3" rx="1.5" fill="#374151" />

  <!-- Body -->
  <rect x="20" y="88" width="160" height="2" rx="1" fill="#D1D5DB" />
  <rect x="20" y="94" width="160" height="2" rx="1" fill="#D1D5DB" />
  <rect x="20" y="100" width="160" height="2" rx="1" fill="#D1D5DB" />
  <rect x="20" y="106" width="140" height="2" rx="1" fill="#D1D5DB" />

  <rect x="20" y="120" width="160" height="2" rx="1" fill="#D1D5DB" />
  <rect x="20" y="126" width="160" height="2" rx="1" fill="#D1D5DB" />
  <rect x="20" y="132" width="160" height="2" rx="1" fill="#D1D5DB" />
  <rect x="20" y="138" width="150" height="2" rx="1" fill="#D1D5DB" />

  <rect x="20" y="152" width="160" height="2" rx="1" fill="#D1D5DB" />
  <rect x="20" y="158" width="160" height="2" rx="1" fill="#D1D5DB" />
  <rect x="20" y="164" width="160" height="2" rx="1" fill="#D1D5DB" />
  <rect x="20" y="170" width="130" height="2" rx="1" fill="#D1D5DB" />

  <rect x="20" y="184" width="160" height="2" rx="1" fill="#D1D5DB" />
  <rect x="20" y="190" width="160" height="2" rx="1" fill="#D1D5DB" />
  <rect x="20" y="196" width="145" height="2" rx="1" fill="#D1D5DB" />

  <!-- Closing -->
  <rect x="20" y="215" width="55" height="3" rx="1.5" fill="#374151" />
  <rect x="20" y="235" width="65" height="3" rx="1.5" fill="#6B7280" />
</svg>