<svg width="200" height="280" viewBox="0 0 200 280" fill="none" xmlns="http://www.w3.org/2000/svg">
  <rect width="200" height="280" rx="4" fill="white" />
  <rect x="1" y="1" width="198" height="278" rx="3" stroke="#E5E7EB" stroke-width="2" />

  <!-- Title -->
  <rect x="20" y="25" width="120" height="8" rx="4" fill="#7C3AED" />

  <!-- Section 1 -->
  <rect x="20" y="50" width="90" height="5" rx="2.5" fill="#1F2937" />
  <rect x="20" y="62" width="160" height="2" rx="1" fill="#D1D5DB" />
  <rect x="20" y="68" width="160" height="2" rx="1" fill="#D1D5DB" />
  <rect x="20" y="74" width="140" height="2" rx="1" fill="#D1D5DB" />

  <!-- Section 2 -->
  <rect x="20" y="90" width="75" height="5" rx="2.5" fill="#1F2937" />
  <rect x="20" y="102" width="160" height="2" rx="1" fill="#D1D5DB" />
  <rect x="20" y="108" width="160" height="2" rx="1" fill="#D1D5DB" />
  <rect x="20" y="114" width="150" height="2" rx="1" fill="#D1D5DB" />

  <!-- Bullet points -->
  <circle cx="25" cy="128" r="2" fill="#7C3AED" />
  <rect x="32" y="126" width="140" height="2" rx="1" fill="#D1D5DB" />
  <circle cx="25" cy="138" r="2" fill="#7C3AED" />
  <rect x="32" y="136" width="130" height="2" rx="1" fill="#D1D5DB" />
  <circle cx="25" cy="148" r="2" fill="#7C3AED" />
  <rect x="32" y="146" width="145" height="2" rx="1" fill="#D1D5DB" />

  <!-- Section 3 -->
  <rect x="20" y="165" width="70" height="5" rx="2.5" fill="#1F2937" />
  <rect x="20" y="177" width="160" height="2" rx="1" fill="#D1D5DB" />
  <rect x="20" y="183" width="160" height="2" rx="1" fill="#D1D5DB" />
  <rect x="20" y="189" width="135" height="2" rx="1" fill="#D1D5DB" />

  <!-- Section 4 -->
  <rect x="20" y="205" width="60" height="5" rx="2.5" fill="#1F2937" />
  <rect x="20" y="217" width="80" height="3" rx="1.5" fill="#6B7280" />
  <rect x="105" y="217" width="75" height="3" rx="1.5" fill="#6B7280" />
  <rect x="20" y="226" width="80" height="3" rx="1.5" fill="#6B7280" />
  <rect x="105" y="226" width="75" height="3" rx="1.5" fill="#6B7280" />

  <!-- Footer -->
  <rect x="20" y="245" width="160" height="2" rx="1" fill="#D1D5DB" />
  <rect x="20" y="251" width="140" height="2" rx="1" fill="#D1D5DB" />
</svg>