<svg width="200" height="280" viewBox="0 0 200 280" fill="none" xmlns="http://www.w3.org/2000/svg">
  <rect width="200" height="280" rx="4" fill="white" />
  <rect x="1" y="1" width="198" height="278" rx="3" stroke="#E5E7EB" stroke-width="2" />

  <!-- Title -->
  <rect x="20" y="25" width="140" height="8" rx="4" fill="#10B981" />
  <rect x="20" y="38" width="100" height="5" rx="2.5" fill="#6B7280" />

  <!-- Section -->
  <rect x="20" y="58" width="85" height="5" rx="2.5" fill="#1F2937" />
  <rect x="20" y="70" width="160" height="2" rx="1" fill="#D1D5DB" />
  <rect x="20" y="76" width="160" height="2" rx="1" fill="#D1D5DB" />
  <rect x="20" y="82" width="145" height="2" rx="1" fill="#D1D5DB" />

  <!-- Feature boxes -->
  <rect x="20" y="98" width="75" height="4" rx="2" fill="#10B981" opacity="0.2" />
  <rect x="24" y="101" width="50" height="2" rx="1" fill="#059669" />
  <rect x="105" y="98" width="75" height="4" rx="2" fill="#10B981" opacity="0.2" />
  <rect x="109" y="101" width="55" height="2" rx="1" fill="#059669" />

  <rect x="20" y="110" width="75" height="4" rx="2" fill="#10B981" opacity="0.2" />
  <rect x="24" y="113" width="45" height="2" rx="1" fill="#059669" />
  <rect x="105" y="110" width="75" height="4" rx="2" fill="#10B981" opacity="0.2" />
  <rect x="109" y="113" width="60" height="2" rx="1" fill="#059669" />

  <!-- Tech stack -->
  <rect x="20" y="128" width="95" height="5" rx="2.5" fill="#1F2937" />
  <rect x="20" y="140" width="70" height="3" rx="1.5" fill="#6B7280" />
  <rect x="95" y="140" width="85" height="3" rx="1.5" fill="#6B7280" />
  <rect x="20" y="148" width="70" height="3" rx="1.5" fill="#6B7280" />
  <rect x="95" y="148" width="85" height="3" rx="1.5" fill="#6B7280" />
  <rect x="20" y="156" width="70" height="3" rx="1.5" fill="#6B7280" />
  <rect x="95" y="156" width="85" height="3" rx="1.5" fill="#6B7280" />

  <!-- Timeline -->
  <rect x="20" y="175" width="65" height="5" rx="2.5" fill="#1F2937" />

  <!-- Phase circles -->
  <circle cx="30" cy="195" r="4" fill="#10B981" />
  <rect x="40" y="193" width="50" height="4" rx="2" fill="#6B7280" />
  <line x1="30" y1="199" x2="30" y2="209" stroke="#D1D5DB" stroke-width="2" />

  <circle cx="30" cy="215" r="4" fill="#10B981" />
  <rect x="40" y="213" width="55" height="4" rx="2" fill="#6B7280" />
  <line x1="30" y1="219" x2="30" y2="229" stroke="#D1D5DB" stroke-width="2" />

  <circle cx="30" cy="235" r="4" fill="#10B981" />
  <rect x="40" y="233" width="60" height="4" rx="2" fill="#6B7280" />

  <!-- Cost -->
  <rect x="120" y="195" width="60" height="8" rx="4" fill="#10B981" opacity="0.2" />
  <rect x="130" y="198" width="40" height="3" rx="1.5" fill="#059669" />
</svg>